<svg id="Layer_1" data-name="Layer 1" xmlns="http://www.w3.org/2000/svg" viewBox="0 0 2200 1300"><defs><style>.cls-1{fill:none;}.cls-2,.cls-7{fill:#fff;}.cls-2{stroke:#000;stroke-miterlimit:10;opacity:0;}.cls-3{fill:#7a4e06;}.cls-4{fill:#84530b;}.cls-5{fill:#6d420a;}.cls-6{fill:#fc2b2b;opacity:0.62;}.cls-8{fill:#4c2e04;}.cls-9{fill:#890000;}.cls-10{fill:#bf2d00;opacity:0.75;}</style></defs><title>Artboard 4</title><rect class="cls-1" x="3.36" y="3.16" width="312.32" height="432.28"/><rect class="cls-1" x="315.67" y="3.16" width="312.32" height="432.28"/><rect class="cls-2" x="627.99" y="3.16" width="312.32" height="432.28"/><rect class="cls-2" x="940.3" y="3.16" width="312.32" height="432.28"/><rect class="cls-2" x="1252.62" y="3.16" width="312.32" height="432.28"/><rect class="cls-2" x="1568.05" y="3.16" width="312.32" height="432.28"/><rect class="cls-2" x="1880.37" y="3.16" width="312.32" height="432.28"/><rect class="cls-2" x="2192.68" y="3.16" width="312.32" height="432.28"/><rect class="cls-1" x="3.36" y="435.44" width="312.32" height="432.28"/><rect class="cls-1" x="315.67" y="435.44" width="312.32" height="432.28"/><rect class="cls-1" x="627.99" y="435.44" width="312.32" height="432.28"/><rect class="cls-1" x="940.3" y="435.44" width="312.32" height="432.28"/><rect class="cls-1" x="1252.62" y="435.44" width="312.32" height="432.28"/><rect class="cls-1" x="1568.05" y="435.44" width="312.32" height="432.28"/><rect class="cls-1" x="1880.37" y="435.44" width="312.32" height="432.28"/><rect class="cls-2" x="2192.68" y="435.44" width="312.32" height="432.28"/><rect class="cls-1" x="3.36" y="867.72" width="312.32" height="432.28"/><rect class="cls-2" x="627.99" y="867.72" width="312.32" height="432.28"/><rect class="cls-2" x="940.3" y="867.72" width="312.32" height="432.28"/><rect class="cls-2" x="1252.62" y="867.72" width="312.32" height="432.28"/><rect class="cls-2" x="1568.05" y="867.72" width="312.32" height="432.28"/><rect class="cls-2" x="1880.37" y="867.72" width="312.32" height="432.28"/><rect class="cls-2" x="2192.68" y="867.72" width="312.32" height="432.28"/><path class="cls-3" d="M181.74,394.2H78c-33.48,0-60.88-27-60.88-59.94V187.17A59.77,59.77,0,0,1,44,137.51a61.09,61.09,0,0,1,34-10.27H181.74c33.48,0,60.88,27,60.88,59.93V334.26C242.62,367.23,215.22,394.2,181.74,394.2Z"/><path class="cls-3" d="M69.92,151.28l-4.26,1a13.69,13.69,0,0,1-16.43-9.76L43.9,121A13.25,13.25,0,0,1,54,105.06l4.26-1a13.69,13.69,0,0,1,16.43,9.76L80,135.36A13.23,13.23,0,0,1,69.92,151.28Z"/><path class="cls-3" d="M187.07,151.4l-4.27-.92a13.24,13.24,0,0,1-10.37-15.74l4.92-21.61a13.68,13.68,0,0,1,16.25-10l4.27.91a13.24,13.24,0,0,1,10.37,15.74l-4.92,21.62A13.69,13.69,0,0,1,187.07,151.4Z"/><rect class="cls-3" x="64.73" y="371.55" width="21.55" height="61.99" rx="10.33" ry="10.33"/><rect class="cls-3" x="45.96" y="412.66" width="37.54" height="20.88" rx="10.14" ry="10.14"/><rect class="cls-3" x="171.72" y="371.55" width="21.55" height="61.99" rx="10.33" ry="10.33"/><rect class="cls-3" x="171.57" y="412.66" width="37.54" height="20.88" rx="10.14" ry="10.14"/><polygon class="cls-4" points="222.58 260.79 257.66 255.35 282.46 276.65 292.24 295 271.94 285.57 276.45 306.66 257.41 294.22 261.42 312.88 226.84 280.23 200.88 281 200.88 261.57 222.58 260.79"/><polygon class="cls-4" points="112.84 257.81 147.91 252.36 172.72 273.67 182.49 292.02 162.19 282.59 166.71 303.68 147.67 291.24 151.67 309.9 117.09 277.24 91.14 278.02 91.14 258.58 112.84 257.81"/><ellipse class="cls-5" cx="139.25" cy="233.98" rx="23.11" ry="16.27"/><ellipse class="cls-6" cx="139.67" cy="236.94" rx="21.1" ry="11.33"/><polygon class="cls-7" points="155.78 245.08 150.45 248.59 146.54 237.48 155.78 245.08"/><polygon class="cls-7" points="128.09 248.27 122.49 245.17 131.1 236.89 128.09 248.27"/><polygon class="cls-7" points="122.32 222.98 127.78 219.66 131.27 230.9 122.32 222.98"/><polygon class="cls-7" points="151.14 219.68 156.55 223.08 147.49 230.88 151.14 219.68"/><polygon class="cls-7" points="142.47 250.3 136.03 250.19 139.46 238.93 142.47 250.3"/><polygon class="cls-7" points="135.68 217.75 142.13 217.72 138.96 229.05 135.68 217.75"/><ellipse class="cls-8" cx="139.25" cy="207.76" rx="9.58" ry="4.25"/><polygon class="cls-9" points="98.55 169.67 95.32 196.32 116.14 190.4 98.55 169.67"/><polygon class="cls-9" points="168.02 170.22 150.62 191.1 171.5 196.85 168.02 170.22"/><polygon class="cls-4" points="551.43 213.26 586.72 207.79 611.68 229.22 621.51 247.68 601.08 238.2 605.63 259.42 586.47 246.9 590.5 265.68 555.71 232.82 529.6 233.6 529.6 214.04 551.43 213.26"/><path class="cls-3" d="M490.1,387.74H385.71c-33.7,0-61.26-27.14-61.26-60.3v-148a60.14,60.14,0,0,1,27.07-50,61.46,61.46,0,0,1,34.19-10.33H490.1c33.69,0,61.25,27.13,61.25,60.3v148C551.35,360.6,523.79,387.74,490.1,387.74Z"/><path class="cls-3" d="M377.86,141.81l-4.44,1A13.69,13.69,0,0,1,357,133.08l-5.4-21.81a13.23,13.23,0,0,1,10.08-15.92l4.44-1a13.69,13.69,0,0,1,16.43,9.77l5.4,21.81A13.23,13.23,0,0,1,377.86,141.81Z"/><path class="cls-3" d="M495.74,142l-4.47-1a13.26,13.26,0,0,1-10.37-15.75l5-21.9a13.68,13.68,0,0,1,16.25-10l4.46,1A13.26,13.26,0,0,1,517,110l-5,21.9A13.68,13.68,0,0,1,495.74,142Z"/><path class="cls-3" d="M522.19,423l2.76-1.39a8.89,8.89,0,0,0,3.95-12.13L507.76,370.1a9.46,9.46,0,0,0-12.52-3.82l-2.77,1.39a8.89,8.89,0,0,0-4,12.13l21.15,39.37A9.46,9.46,0,0,0,522.19,423Z"/><path class="cls-3" d="M541.7,413.16l-17,8.59a9.46,9.46,0,0,1-12.52-3.83l-1.44-2.67a8.9,8.9,0,0,1,3.95-12.14l17-8.58a9.46,9.46,0,0,1,12.53,3.83l1.43,2.67A8.88,8.88,0,0,1,541.7,413.16Z"/><path class="cls-3" d="M420.52,426.53l-2.9-1.09a8.93,8.93,0,0,1-5.3-11.64l16.54-41.38a9.4,9.4,0,0,1,12-5.14l2.9,1.09A8.93,8.93,0,0,1,449.08,380l-16.55,41.39A9.41,9.41,0,0,1,420.52,426.53Z"/><path class="cls-3" d="M417.48,425.39l17.9,6.71a9.4,9.4,0,0,0,12-5.14l1.12-2.81a8.92,8.92,0,0,0-5.3-11.63l-17.9-6.72a9.4,9.4,0,0,0-12,5.14l-1.13,2.81A9,9,0,0,0,417.48,425.39Z"/><polygon class="cls-4" points="535.25 264.89 570.54 259.41 595.5 280.85 605.34 299.31 584.91 289.82 589.45 311.05 570.3 298.53 574.33 317.3 539.53 284.45 513.42 285.23 513.42 265.67 535.25 264.89"/><ellipse class="cls-5" cx="529.19" cy="236.73" rx="22.45" ry="15.63"/><ellipse class="cls-6" cx="529.6" cy="239.57" rx="20.49" ry="10.89"/><polygon class="cls-7" points="545.24 247.4 540.07 250.77 536.26 240.09 545.24 247.4"/><polygon class="cls-7" points="518.34 250.47 512.91 247.48 521.27 239.53 518.34 250.47"/><polygon class="cls-7" points="512.74 226.16 518.04 222.96 521.43 233.77 512.74 226.16"/><polygon class="cls-7" points="540.74 222.99 545.99 226.25 537.19 233.75 540.74 222.99"/><polygon class="cls-7" points="532.32 252.42 526.06 252.31 529.38 241.48 532.32 252.42"/><polygon class="cls-7" points="525.72 221.13 531.98 221.1 528.9 232 525.72 221.13"/><ellipse class="cls-8" cx="541.71" cy="204.62" rx="9.64" ry="4.28"/><polygon class="cls-9" points="511.49 167.43 508.24 194.25 529.19 188.28 511.49 167.43"/><path class="cls-9" d="M548.65,161.77l.59,19.52,2.11-1.85S551.26,166.84,548.65,161.77Z"/><polygon class="cls-4" points="240.9 647.75 275.63 642.36 300.19 663.46 309.87 681.63 289.77 672.29 294.24 693.17 275.38 680.86 279.35 699.33 245.11 667 219.41 667.77 219.41 648.52 240.9 647.75"/><path class="cls-3" d="M180.54,819.46H77.8c-33.16,0-60.29-26.7-60.29-59.34V614.46a59.17,59.17,0,0,1,26.64-49.17A60.52,60.52,0,0,1,77.8,555.11H180.54c33.16,0,60.28,26.71,60.28,59.35V760.12C240.82,792.76,213.7,819.46,180.54,819.46Z"/><path class="cls-3" d="M74.24,576.46l-12.69,2.95a9.18,9.18,0,0,1-11-6.55l-7.3-29.52A8.87,8.87,0,0,1,50,532.66l12.68-2.94a9.18,9.18,0,0,1,11,6.55L81,565.79A8.87,8.87,0,0,1,74.24,576.46Z"/><path class="cls-3" d="M190.26,578.47l-12.74-2.73a8.87,8.87,0,0,1-7-10.55l6.75-29.65a9.18,9.18,0,0,1,10.9-6.74L201,531.53a8.87,8.87,0,0,1,6.95,10.55l-6.75,29.65A9.17,9.17,0,0,1,190.26,578.47Z"/><path class="cls-3" d="M209.54,855.47l7.88-4a6,6,0,0,0,2.65-8.13l-23.49-43.75a6.35,6.35,0,0,0-8.4-2.57l-7.88,4a6,6,0,0,0-2.65,8.14l23.49,43.75A6.36,6.36,0,0,0,209.54,855.47Z"/><path class="cls-3" d="M233.91,843.18,212,854.24a6.34,6.34,0,0,1-8.39-2.57l-4.1-7.64a6,6,0,0,1,2.64-8.13l21.93-11.06a6.35,6.35,0,0,1,8.4,2.57l4.1,7.64A6,6,0,0,1,233.91,843.18Z"/><path class="cls-3" d="M114.78,858.66l-8.29-3.11a6,6,0,0,1-3.55-7.8l18.38-46a6.31,6.31,0,0,1,8.06-3.44l8.28,3.1a6,6,0,0,1,3.56,7.81l-18.39,46A6.3,6.3,0,0,1,114.78,858.66Z"/><path class="cls-3" d="M106.35,855.5l23.05,8.64a6.31,6.31,0,0,0,8.06-3.44l3.21-8a6,6,0,0,0-3.56-7.8l-23.05-8.65a6.3,6.3,0,0,0-8,3.45l-3.21,8A6,6,0,0,0,106.35,855.5Z"/><polygon class="cls-4" points="224.98 698.56 259.71 693.17 284.28 714.27 293.95 732.43 273.85 723.1 278.32 743.98 259.47 731.66 263.44 750.14 229.19 717.81 203.5 718.58 203.5 699.33 224.98 698.56"/><ellipse class="cls-5" cx="219.01" cy="670.85" rx="22.09" ry="15.39"/><ellipse class="cls-6" cx="219.41" cy="673.64" rx="20.17" ry="10.72"/><polygon class="cls-7" points="234.81 681.34 229.72 684.66 225.98 674.15 234.81 681.34"/><polygon class="cls-7" points="208.34 684.36 202.99 681.43 211.22 673.6 208.34 684.36"/><polygon class="cls-7" points="202.82 660.44 208.04 657.3 211.38 667.93 202.82 660.44"/><polygon class="cls-7" points="230.38 657.32 235.54 660.53 226.88 667.91 230.38 657.32"/><polygon class="cls-7" points="222.09 686.28 215.93 686.18 219.21 675.52 222.09 686.28"/><polygon class="cls-7" points="215.6 655.49 221.76 655.46 218.73 666.18 215.6 655.49"/><ellipse class="cls-8" cx="231.33" cy="639.24" rx="9.49" ry="4.21"/><polygon class="cls-9" points="201.59 602.64 198.39 629.03 219.01 623.17 201.59 602.64"/><path class="cls-9" d="M238.16,597.07l.59,19.21,2.07-1.82S240.73,602.06,238.16,597.07Z"/><polygon class="cls-4" points="549.6 637.79 580.8 617.76 613.72 626.18 630.99 638.43 607.5 638.73 620.92 655.72 597.34 652.77 609.22 667.79 562.05 653.4 537.56 665.3 529.17 647.85 549.6 637.79"/><path class="cls-3" d="M495.64,821.73H392.91c-33.16,0-60.29-26.7-60.29-59.34V616.73a59.2,59.2,0,0,1,26.64-49.18,60.56,60.56,0,0,1,33.65-10.17H495.64c33.16,0,60.29,26.71,60.29,59.35V762.39C555.93,795,528.8,821.73,495.64,821.73Z"/><path class="cls-3" d="M389.34,578.73l-12.68,2.95a9.18,9.18,0,0,1-11-6.55l-7.31-29.52a8.88,8.88,0,0,1,6.76-10.68L377.78,532a9.18,9.18,0,0,1,11,6.54l7.3,29.53A8.87,8.87,0,0,1,389.34,578.73Z"/><path class="cls-3" d="M505.37,580.74,492.63,578a8.89,8.89,0,0,1-7-10.56l6.76-29.64a9.17,9.17,0,0,1,10.9-6.74l12.73,2.73a8.89,8.89,0,0,1,7,10.55L516.27,574A9.19,9.19,0,0,1,505.37,580.74Z"/><path class="cls-3" d="M502.68,866.15l8.87-.5a6.11,6.11,0,0,0,5.85-6.37L514.47,810a6.17,6.17,0,0,0-6.57-5.67l-8.87.49a6.12,6.12,0,0,0-5.86,6.37l2.93,49.24A6.19,6.19,0,0,0,502.68,866.15Z"/><path class="cls-3" d="M530.1,864.61,505.43,866a6.18,6.18,0,0,1-6.58-5.67l-.51-8.6a6.12,6.12,0,0,1,5.86-6.37L528.87,844a6.18,6.18,0,0,1,6.58,5.68l.51,8.59A6.12,6.12,0,0,1,530.1,864.61Z"/><path class="cls-3" d="M416.1,857.07l-7-5.32a5.92,5.92,0,0,1-1-8.47l31.49-38.75a6.37,6.37,0,0,1,8.74-1l7,5.32a5.93,5.93,0,0,1,1,8.47l-31.5,38.76A6.37,6.37,0,0,1,416.1,857.07Z"/><path class="cls-3" d="M409,851.66l19.42,14.81a6.38,6.38,0,0,0,8.74-1l5.5-6.76a5.92,5.92,0,0,0-1-8.47L422.2,835.41a6.39,6.39,0,0,0-8.74,1l-5.5,6.77A5.92,5.92,0,0,0,409,851.66Z"/><polygon class="cls-4" points="551.56 704.49 582.11 687.59 612.77 698.95 628.43 712.65 606.22 710.77 618 728.79 595.87 723.7 606.3 739.64 562.5 721.06 538.73 730.55 531.73 712.54 551.56 704.49"/><ellipse class="cls-5" cx="534.12" cy="673.12" rx="22.09" ry="15.39"/><ellipse class="cls-6" cx="534.52" cy="675.91" rx="20.17" ry="10.72"/><polygon class="cls-7" points="549.92 683.61 544.83 686.93 541.08 676.42 549.92 683.61"/><polygon class="cls-7" points="523.44 686.63 518.1 683.7 526.32 675.87 523.44 686.63"/><polygon class="cls-7" points="517.93 662.71 523.14 659.57 526.49 670.2 517.93 662.71"/><polygon class="cls-7" points="545.48 659.59 550.65 662.8 541.99 670.18 545.48 659.59"/><polygon class="cls-7" points="537.2 688.55 531.04 688.45 534.31 677.79 537.2 688.55"/><polygon class="cls-7" points="530.71 657.76 536.86 657.73 533.84 668.45 530.71 657.76"/><ellipse class="cls-8" cx="546.44" cy="641.51" rx="9.49" ry="4.21"/><polygon class="cls-9" points="516.7 604.91 513.5 631.3 534.12 625.43 516.7 604.91"/><path class="cls-9" d="M553.27,599.34l.58,19.21,2.08-1.82S555.84,604.33,553.27,599.34Z"/><polygon class="cls-4" points="860.26 642.64 886.58 616.85 920.58 618.57 940.07 627.14 917.14 632.09 933.86 646.05 910.16 647.84 924.96 660.19 875.75 655.45 854.29 671.96 842.4 656.54 860.26 642.64"/><path class="cls-3" d="M801.16,824H698.42c-33.16,0-60.29-26.7-60.29-59.34V619a59.17,59.17,0,0,1,26.64-49.17,60.52,60.52,0,0,1,33.65-10.18H801.16c33.16,0,60.28,26.71,60.28,59.35V764.61C861.44,797.25,834.32,824,801.16,824Z"/><path class="cls-3" d="M694.86,581l-12.69,2.95a9.18,9.18,0,0,1-11-6.55l-7.3-29.52a8.87,8.87,0,0,1,6.76-10.68l12.68-2.94a9.18,9.18,0,0,1,11,6.55l7.31,29.52A8.87,8.87,0,0,1,694.86,581Z"/><path class="cls-3" d="M810.88,583l-12.74-2.73a8.87,8.87,0,0,1-6.95-10.55L797.94,540a9.18,9.18,0,0,1,10.9-6.74L821.58,536a8.87,8.87,0,0,1,6.95,10.55l-6.75,29.65A9.17,9.17,0,0,1,810.88,583Z"/><path class="cls-3" d="M830.21,851.93l7.25-5a5.93,5.93,0,0,0,1.49-8.41l-29.38-40.28a6.37,6.37,0,0,0-8.68-1.44l-7.26,5a5.94,5.94,0,0,0-1.49,8.41l29.39,40.27A6.38,6.38,0,0,0,830.21,851.93Z"/><path class="cls-3" d="M852.64,836.56l-20.19,13.83a6.37,6.37,0,0,1-8.67-1.45l-5.13-7a5.93,5.93,0,0,1,1.49-8.41l20.18-13.82a6.39,6.39,0,0,1,8.68,1.44l5.13,7A5.94,5.94,0,0,1,852.64,836.56Z"/><path class="cls-3" d="M746.16,866.12l-8.87-.54a6.13,6.13,0,0,1-5.82-6.4l3.2-49.22a6.18,6.18,0,0,1,6.6-5.65l8.87.54a6.12,6.12,0,0,1,5.82,6.4l-3.19,49.23A6.18,6.18,0,0,1,746.16,866.12Z"/><path class="cls-3" d="M737.14,865.57l24.67,1.5a6.18,6.18,0,0,0,6.61-5.64l.56-8.59a6.13,6.13,0,0,0-5.83-6.4l-24.67-1.5a6.18,6.18,0,0,0-6.6,5.64l-.56,8.59A6.13,6.13,0,0,0,737.14,865.57Z"/><polygon class="cls-4" points="854.08 702.32 873.43 673.87 906.08 670.57 926.45 675.93 905.76 683.98 924.68 694.89 902.57 700.04 919.31 709.69 871.57 712.31 854.8 731.2 840.15 718.2 854.08 702.32"/><ellipse class="cls-5" cx="839.63" cy="675.34" rx="22.09" ry="15.39"/><ellipse class="cls-6" cx="840.03" cy="678.13" rx="20.17" ry="10.72"/><polygon class="cls-7" points="855.43 685.83 850.34 689.16 846.6 678.64 855.43 685.83"/><polygon class="cls-7" points="828.96 688.85 823.61 685.92 831.84 678.09 828.96 688.85"/><polygon class="cls-7" points="823.45 664.93 828.66 661.79 832 672.42 823.45 664.93"/><polygon class="cls-7" points="851 661.81 856.16 665.02 847.5 672.4 851 661.81"/><polygon class="cls-7" points="842.71 690.77 836.55 690.67 839.83 680.01 842.71 690.77"/><polygon class="cls-7" points="836.22 659.98 842.38 659.95 839.35 670.67 836.22 659.98"/><ellipse class="cls-8" cx="851.95" cy="643.73" rx="9.49" ry="4.21"/><polygon class="cls-9" points="822.21 607.13 819.01 633.52 839.63 627.66 822.21 607.13"/><path class="cls-9" d="M858.78,601.56l.59,19.21,2.07-1.82S861.35,606.55,858.78,601.56Z"/><polygon class="cls-4" points="1178.27 625.23 1194.37 592.5 1227.07 583.29 1248.38 585.17 1228.4 597.15 1248.93 605.01 1227.15 614.25 1245.32 621.2 1197.24 632.4 1182.58 654.82 1166.11 644.05 1178.27 625.23"/><path class="cls-3" d="M1127.71,822H1025c-33.16,0-60.29-26.71-60.29-59.35V617a59.2,59.2,0,0,1,26.64-49.18A60.56,60.56,0,0,1,1025,557.65h102.73c33.16,0,60.29,26.71,60.29,59.35V762.65C1188,795.29,1160.87,822,1127.71,822Z"/><path class="cls-3" d="M1021.41,579l-12.68,3a9.19,9.19,0,0,1-11-6.55l-7.31-29.52a8.88,8.88,0,0,1,6.76-10.68l12.69-3a9.2,9.2,0,0,1,11,6.55l7.3,29.52A8.87,8.87,0,0,1,1021.41,579Z"/><path class="cls-3" d="M1137.44,581l-12.74-2.73a8.89,8.89,0,0,1-7-10.56l6.76-29.64a9.17,9.17,0,0,1,10.9-6.74l12.73,2.72a8.89,8.89,0,0,1,7,10.56l-6.75,29.65A9.19,9.19,0,0,1,1137.44,581Z"/><path class="cls-3" d="M1138.64,848.92l8.86-.72a6.09,6.09,0,0,0,5.68-6.51l-4.24-49.15a6.19,6.19,0,0,0-6.72-5.51l-8.85.72a6.11,6.11,0,0,0-5.69,6.51l4.24,49.15A6.18,6.18,0,0,0,1138.64,848.92Z"/><path class="cls-3" d="M1166,846.71l-24.63,2a6.19,6.19,0,0,1-6.73-5.51l-.74-8.58a6.12,6.12,0,0,1,5.69-6.51l24.63-2a6.19,6.19,0,0,1,6.72,5.51l.74,8.58A6.11,6.11,0,0,1,1166,846.71Z"/><path class="cls-3" d="M1061.65,860.21l-8.06-3.64a6,6,0,0,1-3-8l21.48-44.72a6.33,6.33,0,0,1,8.27-2.92l8.06,3.63a6,6,0,0,1,3,8l-21.47,44.72A6.33,6.33,0,0,1,1061.65,860.21Z"/><path class="cls-3" d="M1053.46,856.51l22.4,10.11a6.34,6.34,0,0,0,8.28-2.93l3.74-7.8a6,6,0,0,0-3-8l-22.41-10.1a6.33,6.33,0,0,0-8.27,2.92l-3.75,7.81A6,6,0,0,0,1053.46,856.51Z"/><ellipse class="cls-5" cx="1166.19" cy="673.38" rx="22.09" ry="15.39"/><ellipse class="cls-6" cx="1166.59" cy="676.18" rx="20.17" ry="10.72"/><polygon class="cls-7" points="1181.99 683.88 1176.9 687.2 1173.15 676.69 1181.99 683.88"/><polygon class="cls-7" points="1155.51 686.9 1150.17 683.96 1158.39 676.14 1155.51 686.9"/><polygon class="cls-7" points="1150 662.98 1155.21 659.83 1158.56 670.47 1150 662.98"/><polygon class="cls-7" points="1177.55 659.86 1182.72 663.07 1174.06 670.45 1177.55 659.86"/><polygon class="cls-7" points="1169.27 688.82 1163.11 688.72 1166.38 678.06 1169.27 688.82"/><polygon class="cls-7" points="1162.78 658.02 1168.93 658 1165.91 668.72 1162.78 658.02"/><ellipse class="cls-8" cx="1178.51" cy="641.78" rx="9.49" ry="4.21"/><polygon class="cls-9" points="1148.77 605.18 1145.57 631.57 1166.19 625.7 1148.77 605.18"/><path class="cls-9" d="M1185.34,599.6l.58,19.22L1188,617S1187.91,604.6,1185.34,599.6Z"/><polygon class="cls-4" points="1172.99 682.59 1192.34 654.14 1224.99 650.84 1245.36 656.2 1224.67 664.25 1243.59 675.16 1221.48 680.31 1238.22 689.96 1190.48 692.58 1173.71 711.47 1159.06 698.46 1172.99 682.59"/><polygon class="cls-4" points="1476.7 629.53 1476.15 593.27 1501.25 570.97 1521.21 563.51 1508.79 582.82 1530.79 581.05 1515.49 598.69 1534.96 597.11 1496.99 627.8 1494.1 654.2 1474.41 651.62 1476.7 629.53"/><path class="cls-3" d="M1436.76,822.87H1334c-33.16,0-60.29-26.71-60.29-59.35V617.86a59.17,59.17,0,0,1,26.64-49.17A60.48,60.48,0,0,1,1334,558.52h102.74c33.15,0,60.28,26.7,60.28,59.34V763.52C1497,796.16,1469.91,822.87,1436.76,822.87Z"/><path class="cls-3" d="M1330.46,579.87l-12.69,2.94a9.18,9.18,0,0,1-11-6.55l-7.31-29.52a8.87,8.87,0,0,1,6.76-10.67l12.69-3a9.18,9.18,0,0,1,11,6.55l7.3,29.52A8.86,8.86,0,0,1,1330.46,579.87Z"/><path class="cls-3" d="M1446.48,581.87l-12.74-2.72a8.88,8.88,0,0,1-7-10.56l6.75-29.65a9.18,9.18,0,0,1,10.9-6.74l12.74,2.73a8.88,8.88,0,0,1,7,10.56l-6.75,29.64A9.17,9.17,0,0,1,1446.48,581.87Z"/><path class="cls-3" d="M1447.68,849.79l8.86-.72a6.12,6.12,0,0,0,5.69-6.51L1458,793.41a6.19,6.19,0,0,0-6.73-5.51l-8.85.71a6.12,6.12,0,0,0-5.69,6.52l4.24,49.15A6.2,6.2,0,0,0,1447.68,849.79Z"/><path class="cls-3" d="M1475.06,847.57l-24.63,2a6.18,6.18,0,0,1-6.72-5.5l-.74-8.58a6.11,6.11,0,0,1,5.68-6.52l24.63-2a6.2,6.2,0,0,1,6.73,5.51l.74,8.58A6.12,6.12,0,0,1,1475.06,847.57Z"/><path class="cls-3" d="M1370.69,861.07l-8.06-3.63a6,6,0,0,1-3-8l21.47-44.71a6.33,6.33,0,0,1,8.27-2.93l8.06,3.63a6,6,0,0,1,3,8L1379,858.15A6.33,6.33,0,0,1,1370.69,861.07Z"/><path class="cls-3" d="M1362.5,857.38l22.41,10.1a6.34,6.34,0,0,0,8.27-2.92l3.75-7.81a6,6,0,0,0-3-8l-22.41-10.11a6.33,6.33,0,0,0-8.27,2.93l-3.75,7.8A6,6,0,0,0,1362.5,857.38Z"/><ellipse class="cls-5" cx="1475.23" cy="674.25" rx="22.09" ry="15.39"/><ellipse class="cls-6" cx="1475.63" cy="677.04" rx="20.17" ry="10.72"/><polygon class="cls-7" points="1491.03 684.74 1485.94 688.07 1482.19 677.55 1491.03 684.74"/><polygon class="cls-7" points="1464.55 687.76 1459.21 684.83 1467.43 677 1464.55 687.76"/><polygon class="cls-7" points="1459.04 663.84 1464.26 660.7 1467.6 671.34 1459.04 663.84"/><polygon class="cls-7" points="1486.59 660.72 1491.76 663.93 1483.1 671.32 1486.59 660.72"/><polygon class="cls-7" points="1478.31 689.68 1472.15 689.58 1475.42 678.92 1478.31 689.68"/><polygon class="cls-7" points="1471.82 658.89 1477.98 658.86 1474.95 669.59 1471.82 658.89"/><ellipse class="cls-8" cx="1487.55" cy="642.64" rx="9.49" ry="4.21"/><polygon class="cls-9" points="1457.81 606.04 1454.61 632.44 1475.23 626.57 1457.81 606.04"/><path class="cls-9" d="M1494.38,600.47l.59,19.21,2.07-1.82S1497,605.46,1494.38,600.47Z"/><polygon class="cls-4" points="1468.29 676.52 1474.98 643.06 1503.86 627.95 1524.79 625.37 1508.85 640.46 1530.63 643.56 1512.22 656.49 1531.49 659.22 1488.39 679.29 1480.32 702.94 1461.66 696.34 1468.29 676.52"/><polygon class="cls-4" points="1777.14 625.09 1776.59 588.83 1801.69 566.53 1821.65 559.07 1809.23 578.38 1831.23 576.61 1815.93 594.25 1835.4 592.67 1797.43 623.37 1794.54 649.76 1774.86 647.18 1777.14 625.09"/><path class="cls-3" d="M1746.37,821.39H1643.63c-33.15,0-60.28-26.71-60.28-59.35V616.39A59.16,59.16,0,0,1,1610,567.21,60.53,60.53,0,0,1,1643.63,557h102.74c33.16,0,60.29,26.71,60.29,59.35V762C1806.66,794.68,1779.53,821.39,1746.37,821.39Z"/><path class="cls-3" d="M1640.07,578.39l-12.69,3a9.19,9.19,0,0,1-11-6.55l-7.3-29.52a8.87,8.87,0,0,1,6.76-10.68l12.68-3a9.2,9.2,0,0,1,11,6.55l7.3,29.52A8.88,8.88,0,0,1,1640.07,578.39Z"/><path class="cls-3" d="M1756.1,580.39l-12.74-2.72a8.89,8.89,0,0,1-7-10.56l6.76-29.64a9.16,9.16,0,0,1,10.89-6.74l12.74,2.72a8.89,8.89,0,0,1,7,10.56L1767,573.65A9.16,9.16,0,0,1,1756.1,580.39Z"/><rect class="cls-3" x="1749.92" y="805.08" width="21.34" height="61.39" rx="6.98" ry="6.98" transform="translate(3511.89 1690.82) rotate(-179.37)"/><rect class="cls-3" x="1752.43" y="845.91" width="37.17" height="20.67" rx="6.98" ry="6.98" transform="translate(3532.53 1731.87) rotate(-179.37)"/><path class="cls-3" d="M1675.22,848.38l-6.35-6a5.91,5.91,0,0,1-.1-8.53l35.57-35.28a6.4,6.4,0,0,1,8.81-.1l6.35,6a5.91,5.91,0,0,1,.1,8.53L1684,848.28A6.39,6.39,0,0,1,1675.22,848.38Z"/><path class="cls-3" d="M1668.76,842.27,1686.44,859a6.37,6.37,0,0,0,8.8-.1l6.21-6.16a5.91,5.91,0,0,0-.1-8.53l-17.68-16.73a6.37,6.37,0,0,0-8.8.1l-6.21,6.16A5.92,5.92,0,0,0,1668.76,842.27Z"/><ellipse class="cls-5" cx="1784.85" cy="672.77" rx="22.09" ry="15.39"/><ellipse class="cls-6" cx="1785.24" cy="675.57" rx="20.17" ry="10.72"/><polygon class="cls-7" points="1800.64 683.27 1795.55 686.59 1791.81 676.08 1800.64 683.27"/><polygon class="cls-7" points="1774.17 686.29 1768.82 683.35 1777.05 675.53 1774.17 686.29"/><polygon class="cls-7" points="1768.66 662.37 1773.87 659.22 1777.21 669.86 1768.66 662.37"/><polygon class="cls-7" points="1796.21 659.24 1801.38 662.46 1792.72 669.84 1796.21 659.24"/><polygon class="cls-7" points="1787.92 688.21 1781.77 688.11 1785.04 677.45 1787.92 688.21"/><polygon class="cls-7" points="1781.43 657.41 1787.59 657.38 1784.56 668.11 1781.43 657.41"/><ellipse class="cls-8" cx="1797.17" cy="641.17" rx="9.49" ry="4.21"/><polygon class="cls-9" points="1767.42 604.57 1764.23 630.96 1784.85 625.09 1767.42 604.57"/><path class="cls-9" d="M1804,599l.58,19.21,2.08-1.81S1806.57,604,1804,599Z"/><polygon class="cls-4" points="1774.22 676.32 1775.71 642.27 1801.96 623.17 1822.27 617.61 1808.81 634.83 1830.82 634.76 1814.6 650.2 1834.07 650.13 1794.53 676.17 1790.17 700.72 1770.7 696.87 1774.22 676.32"/><path class="cls-3" d="M2074.91,826.39H1971.16c-33.48,0-60.88-27-60.88-59.94V619.36a59.76,59.76,0,0,1,26.9-49.66,61.09,61.09,0,0,1,34-10.27h103.75c33.49,0,60.88,27,60.88,59.93V766.45C2135.79,799.42,2108.4,826.39,2074.91,826.39Z"/><path class="cls-3" d="M1963.09,583.48l-4.25,1a13.71,13.71,0,0,1-16.44-9.77l-5.32-21.52a13.23,13.23,0,0,1,10.08-15.92l4.25-1a13.71,13.71,0,0,1,16.44,9.76l5.32,21.53A13.23,13.23,0,0,1,1963.09,583.48Z"/><path class="cls-3" d="M2080.25,583.59l-4.28-.92a13.24,13.24,0,0,1-10.37-15.74l4.92-21.61a13.68,13.68,0,0,1,16.25-10.05l4.28.91a13.25,13.25,0,0,1,10.37,15.75l-4.92,21.61A13.69,13.69,0,0,1,2080.25,583.59Z"/><rect class="cls-3" x="1957.91" y="803.74" width="21.55" height="61.99" rx="10.33" ry="10.33"/><rect class="cls-3" x="1939.14" y="844.86" width="37.54" height="20.88" rx="10.14" ry="10.14"/><rect class="cls-3" x="2064.89" y="803.74" width="21.55" height="61.99" rx="10.33" ry="10.33"/><rect class="cls-3" x="2064.74" y="844.86" width="37.54" height="20.88" rx="10.14" ry="10.14"/><polygon class="cls-4" points="2115.76 692.98 2150.83 687.54 2175.64 708.85 2185.41 727.19 2165.11 717.76 2169.63 738.86 2150.59 726.42 2154.59 745.08 2120.01 712.42 2094.06 713.2 2094.06 693.76 2115.76 692.98"/><polygon class="cls-4" points="2006.02 690 2041.09 684.56 2065.9 705.86 2075.67 724.21 2055.37 714.78 2059.88 735.87 2040.84 723.43 2044.85 742.09 2010.27 709.44 1984.32 710.21 1984.32 690.78 2006.02 690"/><ellipse class="cls-5" cx="2032.43" cy="666.18" rx="23.11" ry="16.27"/><ellipse class="cls-6" cx="2032.85" cy="669.13" rx="21.1" ry="11.33"/><polygon class="cls-7" points="2048.95 677.27 2043.63 680.78 2039.71 669.67 2048.95 677.27"/><polygon class="cls-7" points="2021.26 680.46 2015.67 677.36 2024.27 669.09 2021.26 680.46"/><polygon class="cls-7" points="2015.5 655.18 2020.95 651.85 2024.45 663.1 2015.5 655.18"/><polygon class="cls-7" points="2044.32 651.88 2049.72 655.27 2040.66 663.07 2044.32 651.88"/><polygon class="cls-7" points="2035.65 682.49 2029.21 682.39 2032.63 671.12 2035.65 682.49"/><polygon class="cls-7" points="2028.86 649.94 2035.3 649.91 2032.13 661.25 2028.86 649.94"/><ellipse class="cls-8" cx="2032.43" cy="639.95" rx="9.58" ry="4.25"/><polygon class="cls-9" points="1991.73 601.86 1988.5 628.51 2009.32 622.59 1991.73 601.86"/><polygon class="cls-9" points="2061.2 602.41 2043.8 623.29 2064.67 629.04 2061.2 602.41"/><rect class="cls-3" x="175.94" y="1214.13" width="20.5" height="60.46" rx="10.25" ry="10.25" transform="translate(9.51 -1.39) rotate(0.44)"/><rect class="cls-3" x="175.64" y="1254.28" width="35.71" height="20.36" rx="10.06" ry="10.06" transform="translate(9.67 -1.44) rotate(0.44)"/><polygon class="cls-4" points="233.44 1027.66 260.1 1005.34 292.51 1010.78 310.63 1021.32 288.43 1023.62 303.6 1039.14 280.83 1038.27 294.26 1051.99 247.49 1041.91 226.01 1055.69 215.54 1039.29 233.44 1027.66"/><path class="cls-3" d="M275.39,1204.81l-87.55,52.45c-28.25,16.93-65.89,8-83.65-19.8L25,1113.34A58.07,58.07,0,0,1,44.07,1032l87.55-52.45c28.25-16.93,65.9-8,83.65,19.8l79.22,124.11A58.1,58.1,0,0,1,275.39,1204.81Z"/><path class="cls-3" d="M49.5,1055.08l-2.91,2.84a14,14,0,0,1-19.28.07l-15.93-15.33a13,13,0,0,1-.07-18.67l2.91-2.84a14,14,0,0,1,19.27-.07l15.94,15.32A13,13,0,0,1,49.5,1055.08Z"/><path class="cls-3" d="M148.39,995.91l-3.9,1.32a13.79,13.79,0,0,1-17.37-8.11l-7.41-20.53a13.13,13.13,0,0,1,8.37-16.82l3.89-1.32a13.78,13.78,0,0,1,17.37,8.1l7.41,20.53A13.15,13.15,0,0,1,148.39,995.91Z"/><path class="cls-3" d="M297.64,1239.46l1.87-2a8.82,8.82,0,0,0-.71-12.7l-33.42-29.06a9.52,9.52,0,0,0-13.11.68l-1.88,2a8.82,8.82,0,0,0,.71,12.7l33.43,29.06A9.51,9.51,0,0,0,297.64,1239.46Z"/><path class="cls-3" d="M312,1224l-12.47,13.46a9.51,9.51,0,0,1-13.11.69l-2.09-1.82a8.82,8.82,0,0,1-.71-12.7L296,1210.18a9.53,9.53,0,0,1,13.11-.69l2.09,1.82A8.82,8.82,0,0,1,312,1224Z"/><polygon class="cls-4" points="242.29 1086 263.45 1058.7 296.31 1057.35 316.34 1063.93 295.14 1070.75 313.36 1082.79 290.92 1086.62 307.05 1097.27 259.14 1097.04 241.17 1114.91 227.35 1101.04 242.29 1086"/><ellipse class="cls-5" cx="227.35" cy="1058.52" rx="21.96" ry="15.54" transform="translate(-488.89 246.64) rotate(-29.3)"/><ellipse class="cls-6" cx="229.21" cy="1060.7" rx="20.04" ry="10.83" transform="translate(-503.25 260) rotate(-30.26)"/><polygon class="cls-7" points="246.52 1059.39 243.99 1064.83 235.08 1057.78 246.52 1059.39"/><polygon class="cls-7" points="225.6 1075.49 219.45 1075.71 222.2 1064.85 225.6 1075.49"/><polygon class="cls-7" points="207.9 1057.92 210.63 1052.58 219.26 1059.93 207.9 1057.92"/><polygon class="cls-7" points="229.67 1041.19 235.82 1041.29 232.46 1052 229.67 1041.19"/><polygon class="cls-7" points="238.37 1070.1 233.06 1073.16 230.06 1062.4 238.37 1070.1"/><polygon class="cls-7" points="216.09 1047.17 221.32 1044.01 224.57 1054.69 216.09 1047.17"/><ellipse class="cls-8" cx="220.66" cy="1025.3" rx="9.43" ry="4.25" transform="translate(-490.02 254.02) rotate(-30.51)"/><polygon class="cls-9" points="175.41 1009.29 187.04 1033.41 201.42 1017.89 175.41 1009.29"/><path class="cls-9" d="M203.54,985.87l11,16.07.78-2.6S208.45,988.81,203.54,985.87Z"/><polygon class="cls-10" points="233.73 993.75 205.1 975.64 193.26 949.24 179.35 962.27 150.39 950.48 170.42 976.64 164.37 995.75 190.66 998.9 215.88 1022.5 212.09 998.28 233.73 993.75"/><path class="cls-3" d="M589.27,1151.45l.55,91c.18,29.37-24.88,53.55-55.68,53.72l-137.46.78a56.86,56.86,0,0,1-46.55-23.34,51.31,51.31,0,0,1-9.77-29.75l-.55-91c-.18-29.38,24.88-53.55,55.68-53.73l137.46-.77C563.75,1098.19,589.1,1122.08,589.27,1151.45Z"/><path class="cls-3" d="M363.18,1252l.33,1.3a13.22,13.22,0,0,1-10,16L336,1273.5a13.72,13.72,0,0,1-16.5-9.67l-.33-1.3a13.23,13.23,0,0,1,10-16l17.58-4.19A13.71,13.71,0,0,1,363.18,1252Z"/><path class="cls-3" d="M362.09,1149.27l-.29,1.31a13.68,13.68,0,0,1-16.19,10.14l-17.7-3.68a13.25,13.25,0,0,1-10.47-15.68l.29-1.31a13.66,13.66,0,0,1,16.19-10.14l17.7,3.68A13.25,13.25,0,0,1,362.09,1149.27Z"/><rect class="cls-3" x="588.19" y="1215.63" width="18.9" height="57.93" rx="9.18" ry="9.18" transform="translate(-643.34 1849.7) rotate(-90.34)"/><rect class="cls-3" x="600.44" y="1244.18" width="32.93" height="19.51" rx="9.36" ry="9.36" transform="translate(-633.3 1878.37) rotate(-90.34)"/><rect class="cls-3" x="587.62" y="1121.78" width="18.9" height="57.93" rx="9.18" ry="9.18" transform="matrix(-0.01, -1, 1, -0.01, -550.06, 1754.72)"/><rect class="cls-3" x="599.78" y="1134" width="32.93" height="19.51" rx="9.36" ry="9.36" transform="translate(-523.79 1766.86) rotate(-90.34)"/><polygon class="cls-4" points="464.39 1116.32 459.12 1085.58 478.9 1063.71 496 1055.04 487.29 1072.9 506.98 1068.83 495.45 1085.59 512.87 1081.98 482.54 1112.49 483.4 1135.25 465.24 1135.35 464.39 1116.32"/><polygon class="cls-4" points="462.19 1212.6 456.91 1181.87 476.69 1159.99 493.79 1151.32 485.08 1169.18 504.77 1165.11 493.24 1181.88 510.66 1178.27 480.33 1208.77 481.19 1231.53 463.03 1231.63 462.19 1212.6"/><ellipse class="cls-5" cx="436.39" cy="1184.52" rx="3.52" ry="20.27" transform="translate(-7.13 2.65) rotate(-0.35)"/><ellipse class="cls-8" cx="420.47" cy="1185.89" rx="3.97" ry="8.41" transform="translate(-7.25 2.59) rotate(-0.35)"/><rect class="cls-9" x="375.61" y="1147.33" width="28.67" height="3.02" transform="matrix(-0.01, -1, 1, -0.01, -756.53, 1545.68)"/><polygon class="cls-9" points="400.18 1137.86 382.09 1160.55 379.7 1158.76 397.79 1136.07 400.18 1137.86"/><polygon class="cls-9" points="383.65 1200.32 399.56 1224.49 397.01 1226.07 381.1 1201.89 383.65 1200.32"/><polygon class="cls-9" points="392.96 1198.62 390.12 1227.16 387.12 1226.88 389.95 1198.34 392.96 1198.62"/></svg>
