<svg id="Layer_1" data-name="Layer 1" xmlns="http://www.w3.org/2000/svg" viewBox="0 0 1366 768"><defs><style>.cls-1{fill:#9a9fa0;}.cls-2{fill:#484b4c;}.cls-3,.cls-5{fill:#5a5e60;}.cls-3{opacity:0.64;}.cls-4{fill:#dedfe0;opacity:0.5;}.cls-6,.cls-7{fill:#f5fafc;}.cls-6{opacity:0.37;}.cls-7{opacity:0.29;}</style></defs><title>Artboard 1</title><path class="cls-1" d="M592,403.73s1-22.59,5.57-34.88c0,0,3.13-13,6.79-17.94,0,0,6.09-10,25.06-15.29,0,0,9.4-3.65,17.4,0,0,0,9.75.67,13.75,4.66,0,0,6.09,6.31,7.48,5.31s11,4.65,12.19,2.33c0,0,9.4,2.66,9.4,9.63,0,0,6.26,3.66,8.7,20.27,0,0,5.74,23.92-3,42.19,0,0-23,2.33-43.34,0,0,0-15.49,1.33-20.88,1,0,0-33.42-6.31-33.42-7.64S593.39,416.36,592,403.73Z"/><path class="cls-2" d="M594.26,396.42l3.14-2.32s3.48,14.62,4.35,13,21.4,9,21.4,9l13.06-3s-6.62-14.62-3.49-14.62-1.74-2,3.49,0,19.84,10.63,19.84,10.63l19.66,7h15.67l8.18-11s1.39,7.31-3.83,17.61c0,0-43.16,3-43.51,0,0,0-36.9-.33-38.12-3.65,0,0-15.14-.67-17.23-3,0,0-3.83-1.66-4.52-11.3Z"/><path class="cls-3" d="M597.94,368.9s18-26.2,18.49-6.12l10.71-.68s12.27-9.19,14.17-6.81c0,0,17.11-1.7,21.77,6.47l13-6.81,1.9,10.21s11.92-10.27,13.22-3.26c0,0,16.33,19.94,3.88,60.44,0,0-100-7.86-101.33-12.78S591.2,387.28,597.94,368.9Z"/><ellipse class="cls-4" cx="624.37" cy="374.99" rx="2.44" ry="3.16"/><ellipse class="cls-5" cx="624.37" cy="374.33" rx="2.61" ry="3.16"/><ellipse class="cls-4" cx="678.5" cy="401.74" rx="1.74" ry="3.99"/><ellipse class="cls-5" cx="678.93" cy="401.74" rx="1.83" ry="4.32"/><polyline class="cls-6" points="648.04 365.6 654.15 365.53 659 365.9 658.68 366.56 658.05 366.56 658.05 367.19 657.74 366.56 657.26 366.88 656.63 366.56"/><path class="cls-5" d="M599.4,360.36l-1.83,6.49s30.28-5.64,35.33,0c0,0,33.76-6.31,46.81,7,0,0,14.77,1.83,17.57-3.57,0,0-.77-3-.81-3s-12.75,5.93-16.41,1.28l-10.79-4.66-17.4-1s-16.71,1.33-19.15-1c0,0-11.48-2.66-16.18-1.66Z"/><path class="cls-7" d="M660.68,389.31s12.72,2.95,16.08,6.63l-2.18.47h0l-5.53-3.2h-2.77Z"/><path class="cls-7" d="M625.16,388.47s-17.92-1.75-24.17,1.92l2.55,1.71h0l8.81-2,3.56,1.3Z"/><path class="cls-5" d="M595,384.52l-2,6.79s32.51-5.9,37.93,0c0,0,36.24-6.6,50.25,7.3,0,0,15.86,1.91,18.86-3.74,0,0-.83-3.09-.88-3.15s-13.68,6.2-17.6,1.33L670,388.19l-18.68-1.05s-17.93,1.39-20.55-1c0,0-12.33-2.78-17.37-1.73Z"/></svg>
