<svg id="Layer_1" data-name="Layer 1" xmlns="http://www.w3.org/2000/svg" viewBox="0 0 1366 768"><defs><style>.cls-1{fill:#9a9fa0;}.cls-2{fill:#484b4c;}.cls-3,.cls-5{fill:#5a5e60;}.cls-3{opacity:0.64;}.cls-4{fill:#dedfe0;opacity:0.5;}.cls-6,.cls-7{fill:#f5fafc;}.cls-6{opacity:0.37;}.cls-7{opacity:0.29;}</style></defs><title>Artboard 1</title><path class="cls-1" d="M592,403.73s1.28-22.59,6.85-34.88c0,0,3.85-13,8.34-17.94,0,0,7.49-10,30.81-15.29,0,0,11.55-3.65,21.39,0,0,0,12,.67,16.9,4.66,0,0,7.49,6.31,9.2,5.31s13.48,4.65,15,2.33c0,0,11.55,2.66,11.55,9.63,0,0,7.7,3.66,10.69,20.27,0,0,7.06,23.92-3.63,42.19,0,0-28.24,2.33-53.27,0,0,0-19,1.33-25.67,1,0,0-41.08-6.31-41.08-7.64S593.71,416.36,592,403.73Z"/><path class="cls-2" d="M594.78,396.42l3.85-2.32s4.28,14.62,5.35,13,26.31,9,26.31,9l16.05-3s-8.13-14.62-4.28-14.62-2.14-2,4.28,0,24.39,10.63,24.39,10.63l24.17,7h19.26l10.05-11s1.71,7.31-4.7,17.61c0,0-53.06,3-53.49,0,0,0-45.35-.33-46.85-3.65,0,0-18.61-.67-21.18-3,0,0-4.71-1.66-5.56-11.3Z"/><path class="cls-3" d="M599.3,368.9s22.09-26.2,22.73-6.12l13.17-.68s15.08-9.19,17.42-6.81c0,0,21-1.7,26.76,6.47L695.31,355l2.34,10.21s14.66-10.27,16.25-3.26c0,0,20.07,19.94,4.78,60.44,0,0-122.95-7.86-124.56-12.78S591,387.28,599.3,368.9Z"/><ellipse class="cls-4" cx="631.79" cy="374.99" rx="3" ry="3.16"/><ellipse class="cls-5" cx="631.79" cy="374.33" rx="3.21" ry="3.16"/><ellipse class="cls-4" cx="698.33" cy="401.74" rx="2.14" ry="3.99"/><ellipse class="cls-5" cx="698.86" cy="401.74" rx="2.25" ry="4.32"/><polyline class="cls-6" points="660.89 365.6 668.4 365.53 674.37 365.9 673.97 366.56 673.2 366.56 673.2 367.19 672.81 366.56 672.23 366.88 671.45 366.56"/><path class="cls-5" d="M601.1,360.36l-2.25,6.49s37.22-5.64,43.42,0c0,0,41.51-6.31,57.55,7,0,0,18.16,1.83,21.6-3.57,0,0-.95-3-1-3s-15.68,5.93-20.17,1.28L687,363.86l-21.4-1s-20.53,1.33-23.53-1c0,0-14.12-2.66-19.9-1.66Z"/><path class="cls-7" d="M676.43,389.31s15.63,2.95,19.76,6.63l-2.68.47h0l-6.8-3.2h-3.4Z"/><path class="cls-7" d="M632.76,388.47s-22-1.75-29.71,1.92l3.14,1.71h0l10.82-2,4.38,1.3Z"/><path class="cls-5" d="M595.7,384.52l-2.42,6.79s40-5.9,46.62,0c0,0,44.55-6.6,61.78,7.3,0,0,19.48,1.91,23.17-3.74,0,0-1-3.09-1.07-3.15s-16.82,6.2-21.64,1.33l-14.24-4.86-23-1.05s-22,1.39-25.26-1c0,0-15.15-2.78-21.36-1.73Z"/></svg>
