<svg id="Layer_1" data-name="Layer 1" xmlns="http://www.w3.org/2000/svg" viewBox="0 0 1366 768"><defs><style>.cls-1{fill:#9a9fa0;}.cls-2{fill:#484b4c;}.cls-3,.cls-5{fill:#5a5e60;}.cls-3{opacity:0.64;}.cls-4{fill:#dedfe0;opacity:0.5;}.cls-6,.cls-7{fill:#f5fafc;}.cls-6{opacity:0.37;}.cls-7{opacity:0.29;}</style></defs><title>Artboard 1</title><path class="cls-1" d="M649,449.31s-19.32-11.78-27.55-22.48c0,0-9.61-9.5-11.89-15.81,0,0-5.26-11.3,1-34.38,0,0,2.22-11.91,10.08-18.86,0,0,6.23-10.26,12.07-12.72,0,0,9.09-3.63,9-5.61s10.46-9.69,9.11-12.11c0,0,7.79-8.94,13.94-5.65,0,0,6.86-5.07,22.92.12,0,0,24.42,5,35.5,23.09,0,0-11.26,26-25.1,47,0,0-7.8,17.42-11.22,23.11,0,0-24.93,33.26-26.1,32.63S660.92,453.75,649,449.31Z"/><path class="cls-2" d="M643.84,443.41l-.24-4.49s14.91,3.11,13.95,1.39,20.32-19,20.32-19l4.92-15.57s-16.72.29-14.91-3.11-2.77,1,2-3.77,20.87-16.51,20.87-16.51l17.54-18,9.08-17-4.94-14s7.26,1.94,13.32,12.45c0,0-22.37,48.21-25.21,47.18,0,0-21.66,39.84-25.3,39.6,0,0-9.36,16.1-12.62,17.27,0,0-3.68,3.37-12.58-.42Z"/><path class="cls-3" d="M621.7,426.46S609,394.62,627,403.52l5.61-11.93s-1-17.64,2.2-18.57c0,0,8.41-19.35,18.32-20.56l1.5-17.26L664.74,338s-2.15-17.77,4.78-15.87c0,0,27.05-8.31,55.56,24.26,0,0-64.86,104.74-70,103.85S634,442.43,621.7,426.46Z"/><ellipse class="cls-4" cx="642.38" cy="400.67" rx="3" ry="3.16" transform="translate(-13.73 778.44) rotate(-61.89)"/><ellipse class="cls-5" cx="641.8" cy="400.36" rx="3.21" ry="3.16" transform="translate(-13.76 777.76) rotate(-61.89)"/><ellipse class="cls-4" cx="697.32" cy="354.59" rx="2.14" ry="3.99" transform="translate(55.97 802.54) rotate(-61.89)"/><ellipse class="cls-5" cx="697.58" cy="354.12" rx="2.25" ry="4.32" transform="translate(56.52 802.51) rotate(-61.89)"/><polyline class="cls-6" points="647.81 370.58 651.28 363.92 654.42 358.83 654.82 359.49 654.46 360.18 655.01 360.47 654.27 360.52 654.27 361.18 653.63 361.71"/><path class="cls-5" d="M615,420.84l4.67,5.05s12.56-35.49,20.46-38.3c0,0,14-39.58,33.27-47.47,0,0,10.17-15.16,7-20.73,0,0-3.06-.56-3.13-.54s-2.16,16.61-8.38,18.38l-10.36,9.51-11,18.4s-8.5,18.74-12,20.29c0,0-9,11.2-10.85,16.76Z"/><path class="cls-7" d="M676,368s10-12.39,15.16-14.3l-.84,2.58h0l-6,4.5-1.61,3Z"/><path class="cls-7" d="M654.73,406.17s-11.93,18.6-12.31,27.11l3-2h0l3.36-10.48,3.21-3.25Z"/><path class="cls-5" d="M633.77,437l4.86,5.33s13.62-38,22-41.11c0,0,15.17-42.41,35.54-51,0,0,10.87-16.29,7.63-22.2,0,0-3.21-.57-3.29-.54s-2.46,17.75-9,19.72l-11,10.26-11.74,19.76s-9.17,20.1-12.83,21.79c0,0-9.59,12.06-11.59,18Z"/></svg>
