<svg id="Layer_1" data-name="Layer 1" xmlns="http://www.w3.org/2000/svg" viewBox="0 0 1366 768"><defs><style>.cls-1{fill:#754c24;}.cls-2{fill:#a67c52;}.cls-3{fill:none;stroke:#c69c6d;stroke-miterlimit:10;}</style></defs><title>Artboard 1</title><rect class="cls-1" x="601.82" y="351.12" width="162.89" height="65.13" rx="32.57" ry="32.57" transform="translate(-50.63 108.98) rotate(-8.79)"/><path class="cls-2" d="M663.15,405.39a33.39,33.39,0,0,1-60.71-27.8,32.83,32.83,0,0,1,18.62-17.19,33.46,33.46,0,0,1,42.09,45Z"/><ellipse class="cls-3" cx="632.67" cy="391.77" rx="29.06" ry="30.54" transform="translate(13.11 803.95) rotate(-65.4)"/><ellipse class="cls-3" cx="632.79" cy="391.49" rx="25.88" ry="27.2" transform="translate(13.43 803.9) rotate(-65.4)"/><ellipse class="cls-3" cx="632.79" cy="391.49" rx="22.71" ry="23.87" transform="translate(13.43 803.9) rotate(-65.4)"/><ellipse class="cls-3" cx="632.67" cy="391.77" rx="20.02" ry="21.05" transform="translate(13.11 803.95) rotate(-65.4)"/><ellipse class="cls-3" cx="632.69" cy="391.87" rx="17.03" ry="17.9" transform="translate(13.02 804.03) rotate(-65.4)"/><ellipse class="cls-3" cx="632.79" cy="391.49" rx="11.37" ry="11.95" transform="translate(13.43 803.9) rotate(-65.4)"/><ellipse class="cls-3" cx="632.25" cy="391.57" rx="5.68" ry="5.98" transform="translate(13.04 803.46) rotate(-65.4)"/><ellipse class="cls-3" cx="632.38" cy="391.3" rx="2.54" ry="2.67" transform="translate(13.36 803.41) rotate(-65.4)"/><ellipse class="cls-3" cx="632.38" cy="391.3" rx="0.79" ry="0.83" transform="translate(13.36 803.41) rotate(-65.4)"/><ellipse class="cls-3" cx="633.13" cy="391.65" rx="14.33" ry="15.06" transform="translate(13.49 804.3) rotate(-65.4)"/></svg>
