<svg id="Layer_1" data-name="Layer 1" xmlns="http://www.w3.org/2000/svg" viewBox="0 0 2200 860"><defs><style>.cls-1{fill:none;}.cls-2,.cls-7{fill:#fff;}.cls-2{stroke:#000;stroke-miterlimit:10;opacity:0;}.cls-3{fill:#84530b;}.cls-4{fill:#7a4e06;}.cls-5{fill:#6d420a;}.cls-6{fill:#fc2b2b;opacity:0.62;}.cls-8{fill:#4c2e04;}.cls-9{fill:#890000;}.cls-10{fill:#bf2d00;opacity:0.75;}</style></defs><title>Artboard 4</title><rect class="cls-1" x="0.36" y="-2.56" width="312.32" height="432.28"/><rect class="cls-1" x="312.67" y="-2.56" width="312.32" height="432.28"/><rect class="cls-1" x="624.99" y="-2.56" width="312.32" height="432.28"/><rect class="cls-1" x="937.3" y="-2.56" width="312.32" height="432.28"/><rect class="cls-1" x="1249.62" y="-2.56" width="312.32" height="432.28"/><rect class="cls-1" x="1565.05" y="-2.56" width="312.32" height="432.28"/><rect class="cls-1" x="1877.37" y="-2.56" width="312.32" height="432.28"/><rect class="cls-1" x="0.36" y="429.72" width="312.32" height="432.28"/><rect class="cls-2" x="624.99" y="429.72" width="312.32" height="432.28"/><rect class="cls-2" x="937.3" y="429.72" width="312.32" height="432.28"/><rect class="cls-2" x="1249.62" y="429.72" width="312.32" height="432.28"/><rect class="cls-2" x="1565.05" y="429.72" width="312.32" height="432.28"/><rect class="cls-2" x="1877.37" y="429.72" width="312.32" height="432.28"/><polygon class="cls-3" points="237.9 209.75 272.63 204.36 297.19 225.46 306.87 243.63 286.77 234.29 291.24 255.17 272.38 242.85 276.35 261.33 242.11 229 216.41 229.77 216.41 210.52 237.9 209.75"/><path class="cls-4" d="M177.54,381.46H74.8c-33.16,0-60.29-26.7-60.29-59.34V176.46a59.17,59.17,0,0,1,26.64-49.17A60.52,60.52,0,0,1,74.8,117.11H177.54c33.16,0,60.28,26.71,60.28,59.35V322.12C237.82,354.76,210.7,381.46,177.54,381.46Z"/><path class="cls-4" d="M71.24,138.46l-12.69,2.95a9.18,9.18,0,0,1-11-6.55l-7.3-29.52A8.87,8.87,0,0,1,47,94.66l12.68-2.94a9.18,9.18,0,0,1,11,6.55L78,127.79A8.87,8.87,0,0,1,71.24,138.46Z"/><path class="cls-4" d="M187.26,140.47l-12.74-2.73a8.87,8.87,0,0,1-7-10.55l6.75-29.65a9.18,9.18,0,0,1,10.9-6.74L198,93.53a8.87,8.87,0,0,1,6.95,10.55l-6.75,29.65A9.17,9.17,0,0,1,187.26,140.47Z"/><path class="cls-4" d="M206.54,417.47l7.88-4a6,6,0,0,0,2.65-8.13l-23.49-43.75a6.35,6.35,0,0,0-8.4-2.57l-7.88,4a6,6,0,0,0-2.65,8.14l23.49,43.75A6.36,6.36,0,0,0,206.54,417.47Z"/><path class="cls-4" d="M230.91,405.18,209,416.24a6.34,6.34,0,0,1-8.39-2.57l-4.1-7.64a6,6,0,0,1,2.64-8.13l21.93-11.06a6.35,6.35,0,0,1,8.4,2.57l4.1,7.64A6,6,0,0,1,230.91,405.18Z"/><path class="cls-4" d="M111.78,420.66l-8.29-3.11a6,6,0,0,1-3.55-7.8l18.38-46a6.31,6.31,0,0,1,8.06-3.44l8.28,3.1a6,6,0,0,1,3.56,7.81l-18.39,46A6.3,6.3,0,0,1,111.78,420.66Z"/><path class="cls-4" d="M103.35,417.5l23.05,8.64a6.31,6.31,0,0,0,8.06-3.44l3.21-8a6,6,0,0,0-3.56-7.8l-23.05-8.65a6.3,6.3,0,0,0-8,3.45l-3.21,8A6,6,0,0,0,103.35,417.5Z"/><polygon class="cls-3" points="221.98 260.56 256.71 255.17 281.28 276.27 290.95 294.44 270.85 285.1 275.32 305.98 256.47 293.67 260.44 312.14 226.19 279.81 200.5 280.58 200.5 261.33 221.98 260.56"/><ellipse class="cls-5" cx="216.01" cy="232.85" rx="22.09" ry="15.39"/><ellipse class="cls-6" cx="216.41" cy="235.64" rx="20.17" ry="10.72"/><polygon class="cls-7" points="231.81 243.34 226.72 246.66 222.98 236.15 231.81 243.34"/><polygon class="cls-7" points="205.34 246.36 199.99 243.43 208.22 235.6 205.34 246.36"/><polygon class="cls-7" points="199.82 222.44 205.04 219.3 208.38 229.94 199.82 222.44"/><polygon class="cls-7" points="227.38 219.32 232.54 222.53 223.88 229.91 227.38 219.32"/><polygon class="cls-7" points="219.09 248.28 212.93 248.18 216.21 237.52 219.09 248.28"/><polygon class="cls-7" points="212.6 217.49 218.76 217.46 215.73 228.18 212.6 217.49"/><ellipse class="cls-8" cx="228.33" cy="201.24" rx="9.49" ry="4.21"/><polygon class="cls-9" points="198.59 164.64 195.39 191.03 216.01 185.17 198.59 164.64"/><path class="cls-9" d="M235.16,159.07l.59,19.21,2.07-1.82S237.73,164.06,235.16,159.07Z"/><polygon class="cls-3" points="546.6 199.79 577.8 179.76 610.72 188.18 627.99 200.44 604.5 200.73 617.92 217.72 594.34 214.77 606.22 229.79 559.05 215.4 534.56 227.3 526.17 209.85 546.6 199.79"/><path class="cls-4" d="M492.64,383.73H389.91c-33.16,0-60.29-26.7-60.29-59.34V178.73a59.2,59.2,0,0,1,26.64-49.18,60.56,60.56,0,0,1,33.65-10.17H492.64c33.16,0,60.29,26.71,60.29,59.35V324.39C552.93,357,525.8,383.73,492.64,383.73Z"/><path class="cls-4" d="M386.34,140.73l-12.68,3a9.18,9.18,0,0,1-11-6.55l-7.31-29.52a8.88,8.88,0,0,1,6.76-10.68L374.78,94a9.18,9.18,0,0,1,11,6.54l7.3,29.53A8.87,8.87,0,0,1,386.34,140.73Z"/><path class="cls-4" d="M502.37,142.74,489.63,140a8.89,8.89,0,0,1-7-10.56l6.76-29.64a9.17,9.17,0,0,1,10.9-6.74l12.73,2.73a8.89,8.89,0,0,1,7,10.55L513.27,136A9.19,9.19,0,0,1,502.37,142.74Z"/><path class="cls-4" d="M499.68,428.15l8.87-.5a6.11,6.11,0,0,0,5.85-6.37L511.47,372a6.17,6.17,0,0,0-6.57-5.67l-8.87.49a6.12,6.12,0,0,0-5.86,6.37l2.93,49.24A6.19,6.19,0,0,0,499.68,428.15Z"/><path class="cls-4" d="M527.1,426.61,502.43,428a6.18,6.18,0,0,1-6.58-5.67l-.51-8.6a6.12,6.12,0,0,1,5.86-6.37L525.87,406a6.18,6.18,0,0,1,6.58,5.68l.51,8.59A6.12,6.12,0,0,1,527.1,426.61Z"/><path class="cls-4" d="M413.1,419.07l-7-5.32a5.92,5.92,0,0,1-1-8.47l31.49-38.75a6.37,6.37,0,0,1,8.74-1l7,5.32a5.93,5.93,0,0,1,1,8.47l-31.5,38.76A6.37,6.37,0,0,1,413.1,419.07Z"/><path class="cls-4" d="M406,413.66l19.42,14.81a6.38,6.38,0,0,0,8.74-1l5.5-6.76a5.92,5.92,0,0,0-1-8.47L419.2,397.41a6.39,6.39,0,0,0-8.74,1l-5.5,6.77A5.92,5.92,0,0,0,406,413.66Z"/><polygon class="cls-3" points="548.56 266.49 579.11 249.59 609.77 260.95 625.43 274.65 603.22 272.77 615 290.79 592.87 285.7 603.3 301.64 559.5 283.06 535.73 292.56 528.73 274.54 548.56 266.49"/><ellipse class="cls-5" cx="531.12" cy="235.12" rx="22.09" ry="15.39"/><ellipse class="cls-6" cx="531.52" cy="237.91" rx="20.17" ry="10.72"/><polygon class="cls-7" points="546.92 245.61 541.83 248.93 538.08 238.42 546.92 245.61"/><polygon class="cls-7" points="520.44 248.63 515.1 245.7 523.32 237.87 520.44 248.63"/><polygon class="cls-7" points="514.93 224.71 520.14 221.57 523.49 232.2 514.93 224.71"/><polygon class="cls-7" points="542.48 221.59 547.65 224.8 538.99 232.18 542.48 221.59"/><polygon class="cls-7" points="534.2 250.55 528.04 250.45 531.31 239.79 534.2 250.55"/><polygon class="cls-7" points="527.71 219.76 533.86 219.73 530.84 230.45 527.71 219.76"/><ellipse class="cls-8" cx="543.44" cy="203.51" rx="9.49" ry="4.21"/><polygon class="cls-9" points="513.7 166.91 510.5 193.3 531.12 187.44 513.7 166.91"/><path class="cls-9" d="M550.27,161.34l.58,19.21,2.08-1.82S552.84,166.33,550.27,161.34Z"/><polygon class="cls-3" points="857.26 204.64 883.58 178.85 917.58 180.57 937.07 189.14 914.14 194.09 930.86 208.05 907.16 209.84 921.96 222.19 872.75 217.45 851.29 233.96 839.4 218.54 857.26 204.64"/><path class="cls-4" d="M798.16,386H695.42c-33.16,0-60.29-26.7-60.29-59.34V181a59.17,59.17,0,0,1,26.64-49.17,60.52,60.52,0,0,1,33.65-10.18H798.16c33.16,0,60.28,26.71,60.28,59.35V326.61C858.44,359.25,831.32,386,798.16,386Z"/><path class="cls-4" d="M691.86,143l-12.69,3a9.18,9.18,0,0,1-11-6.55l-7.3-29.52a8.87,8.87,0,0,1,6.76-10.68l12.68-2.94a9.18,9.18,0,0,1,11,6.55l7.31,29.52A8.87,8.87,0,0,1,691.86,143Z"/><path class="cls-4" d="M807.88,145l-12.74-2.73a8.87,8.87,0,0,1-6.95-10.55L794.94,102a9.18,9.18,0,0,1,10.9-6.74L818.58,98a8.87,8.87,0,0,1,6.95,10.55l-6.75,29.65A9.17,9.17,0,0,1,807.88,145Z"/><path class="cls-4" d="M827.21,413.93l7.25-5a5.93,5.93,0,0,0,1.49-8.41l-29.38-40.28a6.37,6.37,0,0,0-8.68-1.44l-7.26,5a5.94,5.94,0,0,0-1.49,8.41l29.39,40.27A6.38,6.38,0,0,0,827.21,413.93Z"/><path class="cls-4" d="M849.64,398.56l-20.19,13.83a6.37,6.37,0,0,1-8.67-1.45l-5.13-7a5.93,5.93,0,0,1,1.49-8.41l20.18-13.82a6.39,6.39,0,0,1,8.68,1.44l5.13,7A5.94,5.94,0,0,1,849.64,398.56Z"/><path class="cls-4" d="M743.16,428.12l-8.87-.54a6.13,6.13,0,0,1-5.82-6.4l3.2-49.22a6.18,6.18,0,0,1,6.6-5.65l8.87.54a6.12,6.12,0,0,1,5.82,6.4l-3.19,49.23A6.18,6.18,0,0,1,743.16,428.12Z"/><path class="cls-4" d="M734.14,427.57l24.67,1.5a6.18,6.18,0,0,0,6.61-5.64l.56-8.59a6.13,6.13,0,0,0-5.83-6.4l-24.67-1.5a6.18,6.18,0,0,0-6.6,5.64l-.56,8.59A6.13,6.13,0,0,0,734.14,427.57Z"/><polygon class="cls-3" points="851.08 264.32 870.43 235.87 903.08 232.57 923.45 237.93 902.76 245.98 921.68 256.89 899.57 262.05 916.31 271.69 868.57 274.31 851.8 293.2 837.15 280.19 851.08 264.32"/><ellipse class="cls-5" cx="836.63" cy="237.34" rx="22.09" ry="15.39"/><ellipse class="cls-6" cx="837.03" cy="240.13" rx="20.17" ry="10.72"/><polygon class="cls-7" points="852.43 247.83 847.34 251.16 843.6 240.64 852.43 247.83"/><polygon class="cls-7" points="825.96 250.85 820.61 247.92 828.84 240.09 825.96 250.85"/><polygon class="cls-7" points="820.45 226.93 825.66 223.79 829 234.43 820.45 226.93"/><polygon class="cls-7" points="848 223.81 853.16 227.02 844.5 234.4 848 223.81"/><polygon class="cls-7" points="839.71 252.77 833.55 252.67 836.83 242.01 839.71 252.77"/><polygon class="cls-7" points="833.22 221.98 839.38 221.95 836.35 232.67 833.22 221.98"/><ellipse class="cls-8" cx="848.95" cy="205.73" rx="9.49" ry="4.21"/><polygon class="cls-9" points="819.21 169.13 816.01 195.53 836.63 189.66 819.21 169.13"/><path class="cls-9" d="M855.78,163.56l.59,19.21,2.07-1.82S858.35,168.55,855.78,163.56Z"/><polygon class="cls-3" points="1175.27 187.23 1191.37 154.5 1224.07 145.29 1245.38 147.17 1225.4 159.15 1245.93 167.01 1224.15 176.25 1242.32 183.2 1194.24 194.4 1179.58 216.82 1163.11 206.05 1175.27 187.23"/><path class="cls-4" d="M1124.71,384H1022c-33.16,0-60.29-26.71-60.29-59.35V179a59.2,59.2,0,0,1,26.64-49.18A60.56,60.56,0,0,1,1022,119.65h102.73c33.16,0,60.29,26.71,60.29,59.35V324.65C1185,357.29,1157.87,384,1124.71,384Z"/><path class="cls-4" d="M1018.41,141,1005.73,144a9.19,9.19,0,0,1-11-6.55l-7.31-29.52a8.88,8.88,0,0,1,6.76-10.68l12.69-3a9.2,9.2,0,0,1,11,6.55l7.3,29.52A8.87,8.87,0,0,1,1018.41,141Z"/><path class="cls-4" d="M1134.44,143l-12.74-2.73a8.89,8.89,0,0,1-7-10.56l6.76-29.64a9.17,9.17,0,0,1,10.9-6.74l12.73,2.72a8.89,8.89,0,0,1,7,10.56l-6.75,29.65A9.19,9.19,0,0,1,1134.44,143Z"/><path class="cls-4" d="M1135.64,410.92l8.86-.72a6.09,6.09,0,0,0,5.68-6.51l-4.24-49.15a6.19,6.19,0,0,0-6.72-5.51l-8.85.72a6.11,6.11,0,0,0-5.69,6.51l4.24,49.15A6.18,6.18,0,0,0,1135.64,410.92Z"/><path class="cls-4" d="M1163,408.71l-24.63,2a6.19,6.19,0,0,1-6.73-5.51l-.74-8.58a6.12,6.12,0,0,1,5.69-6.51l24.63-2a6.19,6.19,0,0,1,6.72,5.51l.74,8.58A6.11,6.11,0,0,1,1163,408.71Z"/><path class="cls-4" d="M1058.65,422.21l-8.06-3.64a6,6,0,0,1-3-8l21.48-44.72a6.33,6.33,0,0,1,8.27-2.92l8.06,3.63a6,6,0,0,1,3,8l-21.47,44.72A6.33,6.33,0,0,1,1058.65,422.21Z"/><path class="cls-4" d="M1050.46,418.51l22.4,10.11a6.34,6.34,0,0,0,8.28-2.93l3.74-7.8a6,6,0,0,0-3-8l-22.41-10.1a6.33,6.33,0,0,0-8.27,2.92l-3.75,7.81A6,6,0,0,0,1050.46,418.51Z"/><ellipse class="cls-5" cx="1163.19" cy="235.38" rx="22.09" ry="15.39"/><ellipse class="cls-6" cx="1163.59" cy="238.18" rx="20.17" ry="10.72"/><polygon class="cls-7" points="1178.99 245.88 1173.9 249.2 1170.15 238.69 1178.99 245.88"/><polygon class="cls-7" points="1152.51 248.9 1147.17 245.96 1155.39 238.14 1152.51 248.9"/><polygon class="cls-7" points="1147 224.98 1152.21 221.83 1155.56 232.47 1147 224.98"/><polygon class="cls-7" points="1174.55 221.86 1179.72 225.07 1171.06 232.45 1174.55 221.86"/><polygon class="cls-7" points="1166.27 250.82 1160.11 250.72 1163.38 240.06 1166.27 250.82"/><polygon class="cls-7" points="1159.78 220.03 1165.93 220 1162.91 230.72 1159.78 220.03"/><ellipse class="cls-8" cx="1175.51" cy="203.78" rx="9.49" ry="4.21"/><polygon class="cls-9" points="1145.77 167.18 1142.57 193.57 1163.19 187.7 1145.77 167.18"/><path class="cls-9" d="M1182.34,161.6l.58,19.22L1185,179S1184.91,166.6,1182.34,161.6Z"/><polygon class="cls-3" points="1169.99 244.59 1189.34 216.14 1221.99 212.84 1242.36 218.19 1221.67 226.25 1240.59 237.16 1218.48 242.31 1235.22 251.96 1187.48 254.58 1170.71 273.46 1156.06 260.46 1169.99 244.59"/><polygon class="cls-3" points="1473.7 191.53 1473.15 155.27 1498.25 132.97 1518.21 125.51 1505.79 144.82 1527.79 143.05 1512.49 160.69 1531.96 159.11 1493.99 189.8 1491.1 216.2 1471.41 213.62 1473.7 191.53"/><path class="cls-4" d="M1433.76,384.87H1331c-33.16,0-60.29-26.71-60.29-59.35V179.86a59.17,59.17,0,0,1,26.64-49.17A60.48,60.48,0,0,1,1331,120.52h102.74c33.15,0,60.28,26.7,60.28,59.34V325.52C1494,358.16,1466.91,384.87,1433.76,384.87Z"/><path class="cls-4" d="M1327.46,141.87l-12.69,2.94a9.18,9.18,0,0,1-11-6.55l-7.31-29.52a8.87,8.87,0,0,1,6.76-10.67l12.69-2.95a9.18,9.18,0,0,1,11,6.55l7.3,29.52A8.86,8.86,0,0,1,1327.46,141.87Z"/><path class="cls-4" d="M1443.48,143.87l-12.74-2.72a8.88,8.88,0,0,1-7-10.56l6.75-29.65a9.18,9.18,0,0,1,10.9-6.74l12.74,2.73a8.88,8.88,0,0,1,7,10.56l-6.75,29.64A9.17,9.17,0,0,1,1443.48,143.87Z"/><path class="cls-4" d="M1444.68,411.79l8.86-.72a6.12,6.12,0,0,0,5.69-6.51L1455,355.41a6.19,6.19,0,0,0-6.73-5.51l-8.85.71a6.12,6.12,0,0,0-5.69,6.52l4.24,49.15A6.2,6.2,0,0,0,1444.68,411.79Z"/><path class="cls-4" d="M1472.06,409.57l-24.63,2a6.18,6.18,0,0,1-6.72-5.5l-.74-8.58a6.11,6.11,0,0,1,5.68-6.52l24.63-2a6.2,6.2,0,0,1,6.73,5.51l.74,8.58A6.12,6.12,0,0,1,1472.06,409.57Z"/><path class="cls-4" d="M1367.69,423.07l-8.06-3.63a6,6,0,0,1-3-8l21.47-44.71a6.33,6.33,0,0,1,8.27-2.93l8.06,3.63a6,6,0,0,1,3,8L1376,420.15A6.33,6.33,0,0,1,1367.69,423.07Z"/><path class="cls-4" d="M1359.5,419.38l22.41,10.1a6.34,6.34,0,0,0,8.27-2.92l3.75-7.81a6,6,0,0,0-3-8l-22.41-10.11a6.33,6.33,0,0,0-8.27,2.93l-3.75,7.8A6,6,0,0,0,1359.5,419.38Z"/><ellipse class="cls-5" cx="1472.23" cy="236.25" rx="22.09" ry="15.39"/><ellipse class="cls-6" cx="1472.63" cy="239.04" rx="20.17" ry="10.72"/><polygon class="cls-7" points="1488.03 246.74 1482.94 250.07 1479.19 239.55 1488.03 246.74"/><polygon class="cls-7" points="1461.55 249.76 1456.21 246.83 1464.43 239 1461.55 249.76"/><polygon class="cls-7" points="1456.04 225.84 1461.26 222.7 1464.6 233.34 1456.04 225.84"/><polygon class="cls-7" points="1483.59 222.72 1488.76 225.93 1480.1 233.31 1483.59 222.72"/><polygon class="cls-7" points="1475.31 251.69 1469.15 251.58 1472.42 240.93 1475.31 251.69"/><polygon class="cls-7" points="1468.82 220.89 1474.98 220.86 1471.95 231.59 1468.82 220.89"/><ellipse class="cls-8" cx="1484.55" cy="204.64" rx="9.49" ry="4.21"/><polygon class="cls-9" points="1454.81 168.04 1451.61 194.44 1472.23 188.57 1454.81 168.04"/><path class="cls-9" d="M1491.38,162.47l.59,19.21,2.07-1.82S1494,167.46,1491.38,162.47Z"/><polygon class="cls-3" points="1465.29 238.52 1471.98 205.06 1500.86 189.94 1521.79 187.37 1505.85 202.46 1527.63 205.56 1509.22 218.49 1528.49 221.22 1485.39 241.29 1477.32 264.94 1458.66 258.34 1465.29 238.52"/><polygon class="cls-3" points="1774.14 187.09 1773.59 150.83 1798.69 128.53 1818.65 121.07 1806.23 140.38 1828.23 138.61 1812.93 156.25 1832.4 154.67 1794.43 185.37 1791.54 211.76 1771.86 209.18 1774.14 187.09"/><path class="cls-4" d="M1743.37,383.39H1640.63c-33.15,0-60.28-26.71-60.28-59.35V178.39A59.16,59.16,0,0,1,1607,129.21,60.53,60.53,0,0,1,1640.63,119h102.74c33.16,0,60.29,26.71,60.29,59.35V324C1803.66,356.68,1776.53,383.39,1743.37,383.39Z"/><path class="cls-4" d="M1637.07,140.39l-12.69,3a9.19,9.19,0,0,1-11-6.55l-7.3-29.52a8.87,8.87,0,0,1,6.76-10.68l12.68-3a9.2,9.2,0,0,1,11,6.55l7.3,29.52A8.88,8.88,0,0,1,1637.07,140.39Z"/><path class="cls-4" d="M1753.1,142.39l-12.74-2.72a8.89,8.89,0,0,1-7-10.56l6.76-29.64a9.16,9.16,0,0,1,10.89-6.74l12.74,2.72a8.89,8.89,0,0,1,7,10.56L1764,135.65A9.16,9.16,0,0,1,1753.1,142.39Z"/><rect class="cls-4" x="1746.92" y="367.08" width="21.34" height="61.39" rx="6.98" ry="6.98" transform="translate(3510.7 814.81) rotate(-179.37)"/><rect class="cls-4" x="1749.43" y="407.91" width="37.17" height="20.67" rx="6.98" ry="6.98" transform="translate(3531.34 855.87) rotate(-179.37)"/><path class="cls-4" d="M1672.22,410.38l-6.35-6a5.91,5.91,0,0,1-.1-8.53l35.57-35.28a6.4,6.4,0,0,1,8.81-.1l6.35,6a5.91,5.91,0,0,1,.1,8.53L1681,410.28A6.39,6.39,0,0,1,1672.22,410.38Z"/><path class="cls-4" d="M1665.76,404.27,1683.44,421a6.37,6.37,0,0,0,8.8-.1l6.21-6.16a5.91,5.91,0,0,0-.1-8.53l-17.68-16.73a6.37,6.37,0,0,0-8.8.1l-6.21,6.16A5.92,5.92,0,0,0,1665.76,404.27Z"/><ellipse class="cls-5" cx="1781.85" cy="234.77" rx="22.09" ry="15.39"/><ellipse class="cls-6" cx="1782.24" cy="237.57" rx="20.17" ry="10.72"/><polygon class="cls-7" points="1797.64 245.27 1792.55 248.59 1788.81 238.08 1797.64 245.27"/><polygon class="cls-7" points="1771.17 248.29 1765.82 245.35 1774.05 237.53 1771.17 248.29"/><polygon class="cls-7" points="1765.66 224.37 1770.87 221.22 1774.21 231.86 1765.66 224.37"/><polygon class="cls-7" points="1793.21 221.24 1798.38 224.46 1789.72 231.84 1793.21 221.24"/><polygon class="cls-7" points="1784.92 250.21 1778.77 250.11 1782.04 239.45 1784.92 250.21"/><polygon class="cls-7" points="1778.43 219.41 1784.59 219.38 1781.56 230.11 1778.43 219.41"/><ellipse class="cls-8" cx="1794.17" cy="203.17" rx="9.49" ry="4.21"/><polygon class="cls-9" points="1764.42 166.57 1761.23 192.96 1781.85 187.09 1764.42 166.57"/><path class="cls-9" d="M1801,161l.58,19.21,2.08-1.81S1803.57,166,1801,161Z"/><polygon class="cls-3" points="1771.22 238.32 1772.71 204.27 1798.96 185.17 1819.27 179.61 1805.81 196.83 1827.82 196.76 1811.6 212.2 1831.07 212.13 1791.53 238.17 1787.17 262.72 1767.7 258.87 1771.22 238.32"/><path class="cls-4" d="M2071.91,388.39H1968.16c-33.48,0-60.88-27-60.88-59.94V181.36a59.76,59.76,0,0,1,26.9-49.66,61.09,61.09,0,0,1,34-10.27h103.75c33.49,0,60.88,27,60.88,59.93V328.45C2132.79,361.42,2105.4,388.39,2071.91,388.39Z"/><path class="cls-4" d="M1960.09,145.48l-4.25,1a13.71,13.71,0,0,1-16.44-9.77l-5.32-21.52a13.23,13.23,0,0,1,10.08-15.92l4.25-1a13.71,13.71,0,0,1,16.44,9.76l5.32,21.53A13.23,13.23,0,0,1,1960.09,145.48Z"/><path class="cls-4" d="M2077.25,145.59l-4.28-.92a13.24,13.24,0,0,1-10.37-15.74l4.92-21.61a13.68,13.68,0,0,1,16.25-10l4.28.91a13.25,13.25,0,0,1,10.37,15.75l-4.92,21.61A13.69,13.69,0,0,1,2077.25,145.59Z"/><rect class="cls-4" x="1954.91" y="365.74" width="21.55" height="61.99" rx="10.33" ry="10.33"/><rect class="cls-4" x="1936.14" y="406.86" width="37.54" height="20.88" rx="10.14" ry="10.14"/><rect class="cls-4" x="2061.89" y="365.74" width="21.55" height="61.99" rx="10.33" ry="10.33"/><rect class="cls-4" x="2061.74" y="406.86" width="37.54" height="20.88" rx="10.14" ry="10.14"/><polygon class="cls-3" points="2112.76 254.98 2147.83 249.54 2172.64 270.85 2182.41 289.19 2162.11 279.76 2166.63 300.86 2147.59 288.42 2151.59 307.08 2117.01 274.42 2091.06 275.2 2091.06 255.76 2112.76 254.98"/><polygon class="cls-3" points="2003.02 252 2038.09 246.56 2062.9 267.86 2072.67 286.21 2052.37 276.78 2056.88 297.87 2037.84 285.43 2041.85 304.09 2007.27 271.44 1981.32 272.21 1981.32 252.78 2003.02 252"/><ellipse class="cls-5" cx="2029.43" cy="228.18" rx="23.11" ry="16.27"/><ellipse class="cls-6" cx="2029.85" cy="231.13" rx="21.1" ry="11.33"/><polygon class="cls-7" points="2045.95 239.27 2040.63 242.78 2036.71 231.67 2045.95 239.27"/><polygon class="cls-7" points="2018.26 242.46 2012.67 239.36 2021.27 231.09 2018.26 242.46"/><polygon class="cls-7" points="2012.5 217.18 2017.95 213.85 2021.45 225.1 2012.5 217.18"/><polygon class="cls-7" points="2041.32 213.88 2046.72 217.27 2037.66 225.07 2041.32 213.88"/><polygon class="cls-7" points="2032.65 244.49 2026.21 244.39 2029.63 233.12 2032.65 244.49"/><polygon class="cls-7" points="2025.86 211.94 2032.3 211.91 2029.13 223.25 2025.86 211.94"/><ellipse class="cls-8" cx="2029.43" cy="201.95" rx="9.58" ry="4.25"/><polygon class="cls-9" points="1988.73 163.86 1985.5 190.51 2006.32 184.59 1988.73 163.86"/><polygon class="cls-9" points="2058.2 164.41 2040.8 185.29 2061.67 191.04 2058.2 164.41"/><rect class="cls-4" x="172.94" y="776.13" width="20.5" height="60.46" rx="10.25" ry="10.25" transform="translate(6.17 -1.38) rotate(0.44)"/><rect class="cls-4" x="172.64" y="816.28" width="35.71" height="20.36" rx="10.06" ry="10.06" transform="translate(6.32 -1.43) rotate(0.44)"/><polygon class="cls-3" points="230.44 589.66 257.1 567.34 289.51 572.78 307.63 583.32 285.43 585.62 300.6 601.14 277.83 600.27 291.26 613.99 244.49 603.91 223.01 617.69 212.54 601.29 230.44 589.66"/><path class="cls-4" d="M272.39,766.81l-87.55,52.45c-28.25,16.93-65.89,8-83.65-19.8L22,675.34A58.07,58.07,0,0,1,41.07,594l87.55-52.45c28.25-16.93,65.9-8,83.65,19.8l79.22,124.11A58.1,58.1,0,0,1,272.39,766.81Z"/><path class="cls-4" d="M46.5,617.08l-2.91,2.84a14,14,0,0,1-19.28.07L8.38,604.66A13,13,0,0,1,8.31,586l2.91-2.84a14,14,0,0,1,19.27-.07L46.43,598.4A13,13,0,0,1,46.5,617.08Z"/><path class="cls-4" d="M145.39,557.91l-3.9,1.32a13.79,13.79,0,0,1-17.37-8.11l-7.41-20.53a13.13,13.13,0,0,1,8.37-16.82l3.89-1.32a13.78,13.78,0,0,1,17.37,8.1l7.41,20.53A13.15,13.15,0,0,1,145.39,557.91Z"/><path class="cls-4" d="M294.64,801.46l1.87-2a8.82,8.82,0,0,0-.71-12.7l-33.42-29.06a9.52,9.52,0,0,0-13.11.68l-1.88,2a8.82,8.82,0,0,0,.71,12.7l33.43,29.06A9.51,9.51,0,0,0,294.64,801.46Z"/><path class="cls-4" d="M309,786l-12.47,13.46a9.51,9.51,0,0,1-13.11.69l-2.09-1.82a8.82,8.82,0,0,1-.71-12.7L293,772.18a9.53,9.53,0,0,1,13.11-.69l2.09,1.82A8.82,8.82,0,0,1,309,786Z"/><polygon class="cls-3" points="239.29 648 260.45 620.7 293.31 619.35 313.34 625.93 292.14 632.75 310.36 644.79 287.92 648.62 304.05 659.27 256.14 659.04 238.17 676.91 224.35 663.04 239.29 648"/><ellipse class="cls-5" cx="224.35" cy="620.52" rx="21.96" ry="15.54" transform="translate(-274.95 189.15) rotate(-29.3)"/><ellipse class="cls-6" cx="226.21" cy="622.7" rx="20.04" ry="10.83" transform="translate(-282.95 198.82) rotate(-30.26)"/><polygon class="cls-7" points="243.52 621.39 240.99 626.83 232.08 619.78 243.52 621.39"/><polygon class="cls-7" points="222.6 637.49 216.45 637.72 219.2 626.85 222.6 637.49"/><polygon class="cls-7" points="204.9 619.92 207.63 614.58 216.26 621.93 204.9 619.92"/><polygon class="cls-7" points="226.67 603.19 232.82 603.29 229.46 614 226.67 603.19"/><polygon class="cls-7" points="235.37 632.1 230.06 635.16 227.06 624.4 235.37 632.1"/><polygon class="cls-7" points="213.09 609.17 218.32 606 221.57 616.69 213.09 609.17"/><ellipse class="cls-8" cx="217.66" cy="587.3" rx="9.43" ry="4.25" transform="translate(-268.05 191.84) rotate(-30.51)"/><polygon class="cls-9" points="172.41 571.29 184.04 595.41 198.42 579.89 172.41 571.29"/><path class="cls-9" d="M200.54,547.87l11,16.07.78-2.6S205.45,550.81,200.54,547.87Z"/><polygon class="cls-10" points="230.73 555.75 202.1 537.64 190.26 511.24 176.35 524.27 147.39 512.48 167.42 538.64 161.37 557.75 187.66 560.9 212.88 584.5 209.09 560.28 230.73 555.75"/><path class="cls-4" d="M586.27,713.45l.55,91c.18,29.37-24.88,53.55-55.68,53.72L393.68,859a56.86,56.86,0,0,1-46.55-23.34,51.31,51.31,0,0,1-9.77-29.75l-.55-91c-.18-29.38,24.88-53.55,55.68-53.73L530,660.36C560.75,660.19,586.1,684.08,586.27,713.45Z"/><path class="cls-4" d="M360.18,814l.33,1.3a13.22,13.22,0,0,1-10,16L333,835.5a13.72,13.72,0,0,1-16.5-9.67l-.33-1.3a13.23,13.23,0,0,1,10-16l17.58-4.19A13.71,13.71,0,0,1,360.18,814Z"/><path class="cls-4" d="M359.09,711.27l-.29,1.31a13.68,13.68,0,0,1-16.19,10.14L324.91,719a13.25,13.25,0,0,1-10.47-15.68l.29-1.31a13.66,13.66,0,0,1,16.19-10.14l17.7,3.68A13.25,13.25,0,0,1,359.09,711.27Z"/><rect class="cls-4" x="585.19" y="777.63" width="18.9" height="57.93" rx="9.18" ry="9.18" transform="translate(-208.37 1406.07) rotate(-90.34)"/><rect class="cls-4" x="597.44" y="806.18" width="32.93" height="19.51" rx="9.36" ry="9.36" transform="translate(-198.33 1434.73) rotate(-90.34)"/><rect class="cls-4" x="584.62" y="683.78" width="18.9" height="57.93" rx="9.18" ry="9.18" transform="translate(-115.08 1311.09) rotate(-90.34)"/><rect class="cls-4" x="596.78" y="696" width="32.93" height="19.51" rx="9.36" ry="9.36" transform="translate(-88.81 1323.23) rotate(-90.34)"/><polygon class="cls-3" points="461.39 678.32 456.12 647.58 475.9 625.71 493 617.04 484.29 634.9 503.98 630.83 492.45 647.59 509.87 643.98 479.54 674.49 480.4 697.25 462.24 697.35 461.39 678.32"/><polygon class="cls-3" points="459.19 774.6 453.91 743.87 473.69 721.99 490.79 713.32 482.08 731.18 501.77 727.11 490.24 743.88 507.66 740.27 477.33 770.77 478.19 793.53 460.03 793.63 459.19 774.6"/><ellipse class="cls-5" cx="433.39" cy="746.52" rx="3.52" ry="20.27" transform="translate(-4.49 2.62) rotate(-0.35)"/><ellipse class="cls-8" cx="417.47" cy="747.89" rx="3.97" ry="8.41" transform="translate(-4.57 2.57) rotate(-0.35)"/><rect class="cls-9" x="372.61" y="709.33" width="28.67" height="3.02" transform="matrix(-0.01, -1, 1, -0.01, -321.55, 1102.05)"/><polygon class="cls-9" points="397.18 699.86 379.09 722.55 376.7 720.76 394.79 698.07 397.18 699.86"/><polygon class="cls-9" points="380.65 762.32 396.56 786.49 394.01 788.07 378.1 763.89 380.65 762.32"/><polygon class="cls-9" points="389.96 760.62 387.12 789.16 384.12 788.88 386.95 760.34 389.96 760.62"/></svg>
